<svg width="496" height="124" viewBox="0 0 496 124" fill="none" xmlns="http://www.w3.org/2000/svg">
<path d="M157.334 21.3501C150.043 24.4007 142.027 33.0099 139.497 43.8384C136.287 57.5466 149.633 63.3355 150.723 61.4468C152.006 59.2067 148.324 58.4548 147.572 51.3469C146.605 42.1554 150.867 31.8861 156.246 27.3801C157.249 26.5564 157.2 27.7188 157.2 29.8615C157.2 33.726 156.985 68.3006 156.985 75.519C156.985 85.29 156.584 88.367 155.845 91.405C155.119 94.495 153.944 96.578 154.829 97.389C155.832 98.285 160.095 96.152 162.566 92.704C165.522 88.572 166.564 83.607 166.756 78.218C166.974 71.729 166.961 61.4108 166.974 55.5372C166.974 50.1356 167.059 34.3443 166.889 24.8372C166.841 22.5126 160.374 20.0773 157.334 21.3501ZM493.44 72.648C492.398 72.648 491.903 73.738 491.503 75.568C490.122 81.95 488.67 83.389 486.791 83.389C484.697 83.389 482.819 80.23 482.324 73.908C481.949 68.9423 482.008 59.7867 482.493 50.6799C482.591 48.8144 482.08 46.9642 477.066 45.1347C474.9 44.3597 471.762 43.1973 470.202 46.9746C465.781 57.6211 464.061 66.0967 463.648 69.525C463.639 69.704 463.42 69.73 463.381 69.319C463.13 66.5687 462.548 61.5675 462.476 51.0546C462.45 49.0223 462.027 47.2644 459.75 45.8353C458.285 44.9165 453.828 43.2691 452.217 45.2194C450.836 46.8179 449.227 51.1058 447.544 56.1917C446.186 60.3333 445.242 63.1431 445.242 63.1431C445.242 63.1431 445.252 51.9757 445.278 47.7367C445.278 46.138 444.188 45.6068 443.862 45.5093C442.371 45.0732 439.428 44.3597 438.193 44.3597C436.656 44.3597 436.292 45.2194 436.292 46.4665C436.292 46.623 436.038 61.1545 436.038 71.316V72.745C435.201 77.421 432.443 83.766 429.451 83.766C426.459 83.766 425.042 81.113 425.042 69.004C425.042 61.9422 425.261 58.8681 425.358 53.7566C425.417 50.8132 425.538 48.55 425.527 48.0292C425.502 46.4665 422.777 45.6659 421.517 45.3759C420.247 45.0732 419.143 44.9756 418.273 45.0116C417.062 45.0859 416.203 45.884 416.203 47.0002V48.6938C414.64 46.2252 412.107 44.5035 410.414 44.0081C405.885 42.6637 401.148 43.8619 397.576 48.8502C394.743 52.8251 393.034 57.3156 392.369 63.7718C391.871 68.4958 392.031 73.279 392.913 77.323C391.848 81.888 389.885 83.766 387.743 83.766C384.617 83.766 382.367 78.678 382.621 69.874C382.803 64.0875 383.953 60.0306 385.223 54.144C385.769 51.6369 385.32 50.331 384.219 49.0581C383.214 47.9188 381.058 47.326 377.971 48.0394C375.777 48.5604 372.618 49.1172 369.747 49.5431C369.747 49.5431 369.916 48.8502 370.063 47.6289C370.802 41.2214 363.838 41.7424 361.621 43.7901C360.289 45.0116 359.38 46.4536 359.042 49.0454C358.498 53.1639 361.852 55.1011 361.852 55.1011C360.751 60.1383 358.061 66.7252 355.264 71.485C353.774 74.041 352.634 75.919 351.159 77.929C351.145 77.19 351.145 76.438 351.145 75.701C351.12 65.1036 351.253 56.7614 351.315 53.7566C351.376 50.8132 351.497 48.6091 351.497 48.0881C351.471 46.9488 350.807 46.5023 349.4 45.9686C348.166 45.4862 346.701 45.1347 345.187 45.0116C343.286 44.8678 342.123 45.884 342.159 47.0824V48.6938C340.586 46.2252 338.053 44.5035 336.383 44.0081C331.841 42.6637 327.107 43.8619 323.535 48.8502C320.712 52.8251 318.847 58.3832 318.313 63.7102C317.831 68.7011 317.915 72.914 318.593 76.476C317.867 80.035 315.796 83.766 313.448 83.766C310.456 83.766 308.747 81.113 308.747 69.004C308.747 61.9422 308.965 58.8681 309.075 53.7566C309.134 50.8132 309.245 48.55 309.232 48.0292C309.219 46.4665 306.496 45.6659 305.224 45.3759C303.905 45.0628 302.753 44.9654 301.88 45.0116C300.718 45.109 299.907 46.138 299.907 46.9257V48.6938C298.334 46.2252 295.801 44.5035 294.118 44.0081C289.589 42.6637 284.89 43.8877 281.293 48.8502C278.945 52.0861 277.044 55.6811 276.063 63.6512C275.796 65.9529 275.663 68.1059 275.676 70.118C274.742 75.832 270.613 82.422 267.246 82.422C265.26 82.422 263.372 78.593 263.372 70.42C263.372 59.5456 264.049 44.0441 264.17 42.543C264.17 42.543 268.432 42.4685 269.268 42.4583C271.388 42.4454 273.325 42.4943 276.148 42.348C277.577 42.2763 278.945 37.1774 277.467 36.536C276.813 36.2561 272.114 36.0021 270.249 35.9663C268.676 35.9303 264.326 35.6045 264.326 35.6045C264.326 35.6045 264.716 25.3224 264.801 24.2446C264.873 23.3234 263.71 22.8642 263.033 22.5843C261.396 21.8838 259.931 21.5555 258.212 21.2039C255.802 20.7087 254.724 21.1937 254.519 23.2131C254.203 26.2794 254.034 35.2658 254.034 35.2658C252.266 35.2658 246.272 34.9117 244.514 34.9117C242.882 34.9117 241.111 41.9373 243.377 42.022C245.982 42.1196 250.498 42.2172 253.5 42.2992C253.5 42.2992 253.367 58.0572 253.367 62.9121V64.4133C251.709 73.022 245.907 77.675 245.907 77.675C247.154 71.97 244.611 67.6952 240.011 64.0875C238.314 62.7428 234.973 60.2101 231.23 57.4619C231.23 57.4619 233.398 55.3193 235.322 51.0315C236.68 47.9907 236.742 44.4931 233.398 43.7285C227.876 42.4583 223.334 46.5152 221.966 50.8492C220.924 54.1927 221.471 56.6869 223.539 59.2658L224.011 59.8483C222.777 62.2449 221.058 65.4781 219.616 67.9852C215.584 74.949 212.544 80.448 210.255 80.448C208.415 80.448 208.438 74.865 208.438 69.633C208.438 65.1267 208.777 58.3343 209.044 51.3111C209.128 48.9965 207.966 47.6647 206.018 46.4665C204.83 45.7402 202.31 44.3111 200.845 44.3111C198.667 44.3111 192.344 44.6009 186.375 61.8575C185.623 64.0386 184.145 67.9981 184.145 67.9981L184.279 47.2413C184.279 46.7563 184.025 46.2972 183.432 45.9686C182.426 45.4246 179.727 44.3111 177.353 44.3111C176.201 44.3111 175.631 44.8447 175.631 45.8969L175.439 78.352C175.439 80.823 175.498 83.705 175.742 84.965C175.983 86.224 176.383 87.254 176.868 87.869C177.353 88.465 177.92 88.924 178.841 89.129C179.701 89.311 184.435 89.904 184.679 88.1C184.982 85.932 184.992 83.597 187.476 74.842C191.351 61.2288 196.391 54.593 198.764 52.2297C199.188 51.8192 199.66 51.7936 199.634 52.4735C199.526 55.4629 199.175 62.9121 198.933 69.245C198.292 86.212 201.366 89.347 205.787 89.347C209.154 89.347 213.901 85.994 219 77.518C222.184 72.224 225.261 67.0537 227.488 63.3124C229.015 64.7391 230.757 66.2787 232.489 67.9261C236.523 71.739 237.842 75.373 236.96 78.814C236.292 81.452 233.762 84.164 229.269 81.526C227.96 80.762 227.404 80.169 226.085 79.296C225.382 78.824 224.291 78.691 223.65 79.176C221.953 80.448 220.996 82.057 220.439 84.056C219.918 86.006 221.869 87.023 223.891 87.918C225.623 88.706 229.354 89.396 231.738 89.481C241.027 89.796 248.463 85 253.634 72.648C254.568 83.317 258.501 89.36 265.345 89.36C269.933 89.36 274.524 83.438 276.535 77.613C277.103 79.987 277.962 82.044 279.066 83.802C284.347 92.157 294.59 90.366 299.725 83.268C301.323 81.064 301.567 80.277 301.567 80.277C302.316 86.976 307.718 89.335 310.807 89.335C314.282 89.335 317.843 87.69 320.348 82.044C320.651 82.663 320.966 83.245 321.331 83.802C326.599 92.157 336.842 90.366 341.99 83.268C342.221 82.917 342.439 82.627 342.618 82.347L342.778 86.756C342.778 86.756 339.834 89.445 338.031 91.103C330.099 98.382 324.066 103.904 323.62 110.322C323.063 118.521 329.698 121.561 334.736 121.959C340.065 122.385 344.643 119.442 347.45 115.3C349.921 111.667 351.546 103.856 351.425 96.129C351.377 93.03 351.302 89.106 351.23 84.88C354.027 81.659 357.176 77.564 360.06 72.771C363.219 67.5618 366.585 60.5488 368.304 55.0884C368.304 55.0884 371.248 55.114 374.373 54.919C375.379 54.8574 375.669 55.0653 375.474 55.7914C375.256 56.6742 371.527 71.075 374.93 80.666C377.268 87.228 382.51 89.347 385.636 89.347C389.279 89.347 392.769 86.586 394.632 82.494C394.863 82.943 395.094 83.389 395.361 83.802C400.629 92.157 410.836 90.353 416.02 83.268C417.195 81.66 417.849 80.277 417.849 80.277C418.963 87.218 424.365 89.36 427.452 89.36C430.685 89.36 433.736 88.041 436.22 82.178C436.317 84.759 436.474 86.866 436.74 87.531C436.897 87.944 437.818 88.452 438.473 88.706C441.426 89.796 444.431 89.276 445.532 89.045C446.307 88.888 446.912 88.283 446.987 86.684C447.202 82.494 447.069 75.458 448.341 70.215C450.484 61.447 452.47 58.0445 453.415 56.3611C453.938 55.4142 454.541 55.2577 454.554 56.2508C454.59 58.2727 454.7 64.2079 455.534 72.201C456.129 78.062 456.94 81.536 457.569 82.64C459.337 85.775 461.541 85.922 463.322 85.922C464.461 85.922 466.835 85.606 466.627 83.607C466.519 82.64 466.702 76.62 468.795 67.975C470.176 62.3194 472.465 57.2208 473.289 55.3551C473.604 54.665 473.737 55.1987 473.737 55.3064C473.555 59.194 473.168 71.921 474.741 78.873C476.899 88.308 483.109 89.36 485.277 89.36C489.891 89.36 493.683 85.847 494.953 76.597C495.269 74.367 494.808 72.648 493.44 72.648ZM299.809 66.9329C299.555 71.824 298.598 75.919 297.074 78.885C294.287 84.274 288.804 85.97 286.392 78.208C284.636 72.601 285.229 64.9468 285.968 60.8156C287.033 54.6879 289.735 50.3539 293.948 50.7515C298.259 51.1776 300.366 56.7356 299.809 66.9329ZM342.062 67.0048C341.821 71.618 340.622 76.268 339.314 78.885C336.614 84.31 330.969 86.006 328.631 78.208C327.035 72.866 327.41 65.9758 328.208 61.6393C329.239 55.9966 331.721 50.7515 336.191 50.7515C340.538 50.7515 342.68 55.5243 342.062 67.0048ZM343.165 98.539C343.104 106.981 341.785 114.369 338.949 116.524C334.905 119.575 329.468 117.273 330.594 111.123C331.587 105.672 336.299 100.114 343.178 93.319C343.178 93.319 343.202 94.869 343.165 98.539ZM416.118 67.0535C415.874 72.129 414.747 76.089 413.357 78.885C410.655 84.31 405.061 85.993 402.674 78.208C401.378 73.956 401.317 66.8586 402.251 60.9387C403.195 54.9059 405.848 50.3539 410.231 50.7515C414.565 51.1647 416.59 56.7356 416.118 67.0535Z" fill="#231E1F"/>
<path d="M62.556 0C45.711 0 43.599 0.0713992 36.983 0.372999C30.381 0.674099 25.873 1.7223 21.9273 3.2547C17.8486 4.8392 14.3896 6.9593 10.9415 10.406C7.49329 13.8527 5.37229 17.3107 3.78739 21.3877C2.25399 25.3313 1.20569 29.8382 0.90419 36.4374C0.60239 43.0504 0.531189 45.1619 0.531189 62.0002C0.531189 78.838 0.60239 80.95 0.90419 87.563C1.20569 94.162 2.25399 98.669 3.78739 102.612C5.37249 106.689 7.49339 110.147 10.9415 113.594C14.3898 117.041 17.8486 119.161 21.9273 120.745C25.873 122.278 30.381 123.326 36.983 123.627C43.599 123.929 45.711 124 62.556 124C79.401 124 81.513 123.929 88.129 123.627C94.731 123.326 99.24 122.278 103.185 120.745C107.263 119.161 110.722 117.041 114.171 113.594C117.619 110.147 119.74 106.689 121.325 102.612C122.858 98.669 123.907 94.162 124.208 87.563C124.51 80.95 124.581 78.838 124.581 62.0002C124.581 45.1619 124.51 43.0504 124.208 36.4374C123.907 29.8382 122.858 25.3313 121.325 21.3877C119.74 17.3107 117.619 13.8527 114.171 10.406C110.722 6.9593 107.263 4.8392 103.185 3.2547C99.24 1.7223 94.731 0.674099 88.129 0.372999C81.513 0.0713992 79.401 0 62.556 0ZM62.556 11.1711C79.117 11.1711 81.079 11.2344 87.619 11.5327C93.667 11.8083 96.951 12.8183 99.137 13.6674C102.032 14.7922 104.098 16.1356 106.268 18.3052C108.439 20.4748 109.783 22.5402 110.908 25.4341C111.758 27.6188 112.768 30.9018 113.044 36.9467C113.342 43.4844 113.405 45.4454 113.405 62C113.405 78.555 113.342 80.516 113.044 87.053C112.768 93.098 111.758 96.381 110.908 98.566C109.783 101.46 108.439 103.525 106.268 105.695C104.098 107.864 102.032 109.208 99.137 110.333C96.951 111.182 93.667 112.192 87.619 112.467C81.08 112.766 79.119 112.829 62.556 112.829C45.994 112.829 44.032 112.766 37.493 112.467C31.445 112.192 28.161 111.182 25.976 110.333C23.08 109.208 21.0142 107.864 18.8439 105.695C16.6734 103.525 15.3293 101.46 14.204 98.566C13.3546 96.381 12.3444 93.098 12.0685 87.053C11.7701 80.516 11.7067 78.555 11.7067 62C11.7067 45.4454 11.7701 43.4844 12.0685 36.9467C12.3444 30.9016 13.3546 27.6188 14.204 25.4343C15.3293 22.5401 16.6734 20.4748 18.8437 18.3054C21.0142 16.1356 23.08 14.7922 25.976 13.6674C28.161 12.8183 31.445 11.8083 37.493 11.5327C44.033 11.2344 45.995 11.1711 62.556 11.1711Z" fill="#100F0D"/>
<path d="M62.556 82.667C51.138 82.667 41.881 73.414 41.881 62.0002C41.881 50.586 51.138 41.3333 62.556 41.3333C73.975 41.3333 83.231 50.586 83.231 62.0002C83.231 73.414 73.975 82.667 62.556 82.667ZM62.556 30.1622C44.965 30.1622 30.705 44.4163 30.705 62.0002C30.705 79.584 44.965 93.838 62.556 93.838C80.147 93.838 94.407 79.584 94.407 62.0002C94.407 44.4163 80.147 30.1622 62.556 30.1622ZM103.108 28.9043C103.108 33.0134 99.776 36.3442 95.665 36.3442C91.555 36.3442 88.222 33.0134 88.222 28.9043C88.222 24.7953 91.555 21.4641 95.665 21.4641C99.776 21.4641 103.108 24.7953 103.108 28.9043Z" fill="#100F0D"/>
</svg>
